<?xml version="1.0" encoding="UTF-8" standalone="no"?>
<svg
   xmlns:dc="http://purl.org/dc/elements/1.1/"
   xmlns:cc="http://creativecommons.org/ns#"
   xmlns:rdf="http://www.w3.org/1999/02/22-rdf-syntax-ns#"
   xmlns:svg="http://www.w3.org/2000/svg"
   xmlns="http://www.w3.org/2000/svg"
   xmlns:sodipodi="http://sodipodi.sourceforge.net/DTD/sodipodi-0.dtd"
   xmlns:inkscape="http://www.inkscape.org/namespaces/inkscape"
   version="1.1"
   id="svg2"
   xml:space="preserve"
   width="815.1333"
   height="599.9734"
   viewBox="0 0 4030.1333 3196.9734"
   sodipodi:docname="900_(33) [Converted].eps"><metadata
     id="metadata8"><rdf:RDF><cc:Work
         rdf:about=""><dc:format>image/svg+xml</dc:format><dc:type
           rdf:resource="http://purl.org/dc/dcmitype/StillImage" /></cc:Work></rdf:RDF></metadata><defs
     id="defs6" /><sodipodi:namedview
     pagecolor="#ffffff"
     bordercolor="#666666"
     borderopacity="1"
     objecttolerance="10"
     gridtolerance="10"
     guidetolerance="10"
     inkscape:pageopacity="0"
     inkscape:pageshadow="2"
     inkscape:window-width="640"
     inkscape:window-height="480"
     id="namedview4" /><g
     id="g10"
     inkscape:groupmode="layer"
     inkscape:label="ink_ext_XXXXXX"
     transform="matrix(1.3333333,0,0,-1.3333333,0,3196.9733)"><g
       id="g12"
       transform="scale(0.1)"><path
         d="m 4557.4,17214.4 c -440,-1647 -770,-3324 -982.01,-5016 -217.99,117 -461,260 -707.99,421 v 0.5 c -3400.502,2212.5 -1864.5,4234 1690,4594.5"
         style="fill:#f46b20;fill-opacity:1;fill-rule:nonzero;stroke:none"
         id="path16" /><path
         d="m 2663.46,12758.6 c -692.12,482.8 -1397.76,1105.9 -1630.19,1863 18.47,56.1 38.58,110.4 60.34,163.3 156.2,-107.4 313.83,-154.9 470.82,-154.9 450.21,-0.1 895.97,389.9 1293.62,874.7 -21.98,-92.1 -42.37,-184.8 -61.16,-277.9 v 0 l -0.3,-1.7 v 0 c -15.39,-75.7 -29.6,-151.8 -42.69,-228.1 v 0 c -13.71,-78.9 -26.2,-158 -37.51,-237.5 v 0 c -7.9,-54.7 -15.19,-109.6 -21.9,-164.6 v 0 l -0.1,-1.2 v 0 c -4.79,-38.3 -9.2,-76.6 -13.4,-115 v 0 c -4.4,-40.5 -8.6,-81.1 -12.4,-121.7 -3.19,-34.7 -6.29,-69.4 -9.1,-104.2 -0.69,-7.5 -1.29,-15.1 -1.89,-22.6 v 0 c -2.2,-27.2 -4.2,-54.4 -6.01,-81.7 v 0 c -1.19,-15.5 -2.29,-30.9 -3.09,-46.4 -0.8,-11.4 -1.51,-22.8 -2.2,-34.2 -2.9,-45.6 -5.31,-91.3 -7.21,-137.1 -1.3,-27.3 -2.39,-54.6 -3.29,-82 -3.79,-105.5 -5.67,-211.4 -5.63,-317.7 0.06,-177.2 5.44,-355.3 16.13,-534.4 v -0.1 0 c 3.9,-66.4 8.49,-132.9 13.9,-199.5 v 0 c 1.1,-12.8 2.1,-25.6 3.2,-38.4 l 0.06,-0.1"
         style="fill:#d65b1e;fill-opacity:1;fill-rule:nonzero;stroke:none"
         id="path18" /><path
         d="m 14611.5,1352.7 c -727.9,0 -1600.9,358.7 -2345.1,664.6 -171.4,70.4 -333.2,136.9 -484.7,195.6 -73.1,28.3 -122.9,96.6 -127.5,174.8 -17.7,302.3 101.9,605.9 328.2,832.9 232.7,233.4 545,357.6 858.6,340 110.2,-6.1 194.7,-100.5 188.6,-210.8 -6.2,-110.2 -100,-194.7 -210.8,-188.6 -199,11 -400.8,-70.2 -553.1,-223 -114.3,-114.6 -186.5,-257.3 -207.1,-404.4 115.3,-46.1 235.1,-95.3 359.9,-146.6 963.9,-396.2 2163.7,-889.3 2781.1,-488 288,187.2 442.6,581.9 459.4,1173.4 3.1,110.4 95.5,195.4 205.6,194.2 110.4,-3.1 197.4,-95.1 194.2,-205.5 -20.8,-730.7 -236.5,-1234.5 -641.3,-1497.5 -231.3,-150.3 -506.4,-211.1 -806,-211.1"
         style="fill:#481c1f;fill-opacity:1;fill-rule:nonzero;stroke:none"
         id="path20" /><path
         d="m 1001.99,14724.8 c -216.912,880.2 346.43,1462.5 1143.88,1847.1 -809.06,-422.4 -1245.468,-1011 -1169.022,-1695.1 -0.993,0.9 -1.957,1.7 -2.95,2.6 3.426,-22.2 7.278,-44.4 11.536,-66.5 4.586,-29.2 10.105,-58.6 16.556,-88.1"
         style="fill:#daebf1;fill-opacity:1;fill-rule:nonzero;stroke:none"
         id="path22" /><path
         d="m 1031.9,14617.4 c -11.24,36.2 -21.22,72.1 -29.91,107.4 -6.451,29.5 -11.97,58.9 -16.556,88.1 12.492,-64.6 28.546,-128.5 47.836,-191.3 -0.45,-1.4 -0.92,-2.8 -1.37,-4.2 m 61.71,167.5 c -38.99,26.8 -77.96,57.4 -116.762,91.9 -76.446,684.1 359.962,1272.7 1169.022,1695.1 375.76,181.3 803.38,318.5 1226.04,422.3 -0.01,0 -0.01,0 -0.02,0 -31.09,-67.6 -61.29,-135.7 -90.39,-204.1 -61.41,-143.9 -118.5,-289.6 -171.3,-436.8 v 0 C 2236.9,16096 1449.65,15649.9 1093.61,14784.9"
         style="fill:#fbc39f;fill-opacity:1;fill-rule:nonzero;stroke:none"
         id="path24" /><path
         d="m 985.434,14812.9 c -4.258,22.1 -8.11,44.3 -11.536,66.5 0.993,-0.9 1.957,-1.7 2.95,-2.6 2.375,-21.3 5.215,-42.4 8.586,-63.9"
         style="fill:#d4dbe1;fill-opacity:1;fill-rule:nonzero;stroke:none"
         id="path26" /><path
         d="m 1033.27,14621.6 c -19.29,62.8 -35.344,126.7 -47.836,191.3 -3.371,21.5 -6.211,42.6 -8.586,63.9 38.802,-34.5 77.772,-65.1 116.762,-91.9 -21.76,-52.9 -41.87,-107.2 -60.34,-163.3"
         style="fill:#edbb9f;fill-opacity:1;fill-rule:nonzero;stroke:none"
         id="path28" /><path
         d="m 3079.09,12710.2 c -78.89,48.5 -155.5,97.5 -229.79,146.8 l -0.71,0.5 c -69.5,46.1 -136.89,92.5 -202.29,139.1 v 0.1 c -775.3,553.3 -1262.4,1143.8 -1403.51,1703.6 -26.3,104.1 -40.5,207.2 -42.5,308.7 -1.59,84.7 5.4,168.4 21.2,250.8 130.71,681.3 875.5,1221.8 2060,1530.3 l 0.31,0.1 c 78.49,20.4 158.89,39.9 241.2,58.2 l 1.2,0.3 c 79.89,17.8 161.49,34.7 244.89,50.5 h 0.11 c 22.79,4.3 45.69,8.6 68.8,12.7 146.49,26.6 298.3,50.1 454.9,70.4 -34,-130.9 -67.21,-262.1 -99.71,-393.6 -332.5,-1341.3 -592.59,-2708.6 -775.8,-4076.6 -116.89,65.1 -229.69,131.2 -338.09,197.9 z M 4713.3,17344 c -42.61,50 -107.21,76 -172.5,69.4 -187.61,-18.9 -369.1,-42 -544.31,-69 -3.49,-0.6 -7,-1.1 -10.49,-1.7 -82.81,-12.8 -164.2,-26.6 -244.2,-41.3 l -1.4,-0.2 c -83.11,-15.3 -164.71,-31.5 -244.71,-48.7 l -2.5,-0.5 C 1956.8,16922.4 1003.5,16247 828.594,15335.1 c -104.199,-543.4 83.105,-1133.3 541.606,-1705.9 321.79,-401.9 764.29,-786.1 1321,-1147.5 66.3,-43.1 134.2,-85.8 203.8,-128.3 l 0.69,-0.4 c 78.8,-48 159.71,-95.7 242.71,-142.8 l 0.19,-0.2 c 112.1,-63.8 228,-126.8 347.5,-189 29.01,-15.1 60.61,-22.6 92.31,-22.6 31.89,0 63.8,7.6 92.9,22.9 57.9,30.4 97.4,87.2 105.5,152.1 211.2,1677.5 540,3356.1 977.29,4989.3 17,63.4 1.71,131.2 -40.79,181.3"
         style="fill:#481c1f;fill-opacity:1;fill-rule:nonzero;stroke:none"
         id="path30" /><path
         d="m 28567.9,10843.4 c -1666.5,-5458.5 -7183,-8440.5 -12438.5,-9780.5 -404.5,-32.5 -810,17 -1195,149.5 -3356,1134.5 -6738.5,2508 -9094.5,5147 l -1,1 v 0.5 c -1432,1550.5 -2517.5,3446 -2877.01,5535 -41.5,239.5 -72.99,482.5 -94.99,724.5 -136,1507 94,3060.5 748.49,4429 2281.01,4789.5 9354.01,5549.5 12272.01,553 0.5,1 1.5,2 1.5,2.5 2263.5,3953.5 7557,4454 10732.5,1541 2242,-2053.5 2796.5,-5467 1946.5,-8302.5"
         style="fill:#481c1f;fill-opacity:1;fill-rule:nonzero;stroke:none"
         id="path32" /><path
         d="m 9942.6,20771.8 c 555.3,0 1098.5,-61.3 1608.8,-176.9 661.4,-149.8 1333.7,-407.8 1955.6,-784.4 422.8,-255.9 822.4,-566.7 1179.5,-935.5 152,-156.9 296.3,-324.3 431.3,-502.5 l 0.3,-0.4 c 239.9,-316.2 450.8,-666.3 624.6,-1051.6 0.8,-1.4 1.4,-2.8 1.9,-4.2 60.3,-133.6 116,-271.4 166.9,-413.6 0.5,-1.5 1.1,-3 1.6,-4.6 1.6,-4.4 3.2,-8.8 4.7,-13.3 56.2,-158.3 106.4,-322 150.1,-491.1 15.1,-58.1 29.3,-116.8 42.8,-176.1 1.5,-6.6 3,-13.1 4.4,-19.7 97.2,-433.7 153,-901.4 160,-1404.4 0.1,-3.6 0.1,-7.3 0.2,-11 1.1,-83.4 0.8,-167.8 -0.9,-253.2 -1.3,-67.5 31.5,-131.1 87.3,-169.1 2,-1.4 4,-2.7 5.9,-4.1 20,-13.6 39.6,-27.5 59,-41.6 38.1,-27.6 75.1,-55.8 111,-84.8 127.3,-102.5 240.4,-212.8 340.2,-329.4 114.7,-134 211.9,-276.3 293.3,-424.9 50.2,-91.4 94.3,-185.2 132.7,-280.9 105.7,-263 168.8,-540.1 196.9,-821 9.1,-90.9 14.6,-182.2 16.6,-273.5 4.6,-208.4 -8.5,-417.1 -36.3,-621.8 -13.4,-99.1 -30.2,-197.2 -50.2,-293.9 -1,-4.9 -2,-9.8 -3,-14.6 -20.1,-96.2 -43.3,-190.9 -69.2,-283.7 -19.9,-71.7 -41.5,-142.3 -64.5,-211.6 -18.2,-54.9 -11.4,-113 15.4,-160.8 16.5,-29.5 40.7,-55.1 71.2,-73.5 22.8,-13.7 45.5,-27.4 68.3,-41.3 77,-46.5 154.1,-93.3 231.3,-140.5 43.7,-26.6 87.4,-53.5 131.2,-80.3 143.7,-88.5 287.7,-177.9 431.7,-268.4 5.1,-3 10.1,-6.2 15.2,-9.5 172.4,-108.1 344.9,-217.8 517.6,-328.9 38.3,-24.6 76.7,-49.3 115,-74.1 143.9,-93 287.8,-186.9 431.9,-281.9 373.3,-245.9 747.3,-498.3 1121.7,-757 107.4,-74.1 214.8,-148.8 322.2,-224 544.6,-381.3 1089.9,-775.7 1635.2,-1182.8 395.4,-295.1 790.8,-596.9 1185.9,-905.1 37.5,-29.3 75.1,-58.6 112.6,-88 72.3,-56.7 144.7,-113.6 217,-170.7 6.6,-5.2 13.3,-10.5 19.9,-15.7 16.3,-12.9 32.7,-25.8 49,-38.8 68,-53.8 136,-107.8 204,-162.1 135.4,-107.9 270.8,-216.6 406.1,-326 l 1.3,-1.1 c -83,-71 -169.6,-142.5 -259.3,-214.4 l -2.2,-1.8 c -1197.3,-959 -2968.5,-1985.9 -4758.7,-2744 -1376.5,-583 -2764.4,-1006.9 -3911.1,-1118.8 -173.2,45.9 -344.8,92.8 -514.7,140.8 -16.2,4.6 -32.3,9.1 -48.4,13.7 -152.8,43.4 -304.3,87.7 -454.4,132.8 -990.6,297.5 -1921.8,631.5 -2792.5,1001.5 -62.6,26.5 -124.8,53.3 -186.7,80.2 -1322.1,575.3 -2501.6,1235 -3534.11,1976.7 -500.19,359.2 -965.9,737.8 -1396.6,1135.4 -268,247.4 -522.5,502.1 -763.29,764.2 -150,155.5 -294.6,314.9 -433.6,477.6 -102.2,119.6 -201.4,241.1 -297.6,364.3 -370.8,474.6 -697,974.6 -976.91,1491.7 -107,197.6 -207.19,397.7 -300.59,599.9 -164.5,356.3 -307.8,719 -429.1,1085.5 -75.8,228.4 -143,458.3 -201.6,689.1 -83.61,329.4 -149.81,660.6 -198,991.9 -12.7,86.5 -24.01,173 -34.1,259.5 -9.51,80.2 -17.9,160.4 -25.21,240.5 -90.79,994.3 -18.49,1981.2 226.81,2912.9 9.39,35.8 19.1,71.6 29.1,107.3 9.7,35 19.7,69.9 30,104.8 37.6,127.7 78.49,254.3 122.79,379.6 4.61,13.1 9.31,26.3 14.01,39.4 12.5,35 25.4,70 38.49,104.8 10.88,28.7 22.05,57.4 33.22,86 3.86,9.8 7.67,19.7 11.59,29.5 11.29,28.7 22.8,57.3 34.5,85.8 7.39,18 14.79,36 22.39,53.9 l 0.2,0.4 c 6.71,16.2 13.61,32.3 20.5,48.4 34.11,79.4 69.6,158.1 106.51,236.2 9.8,20.7 19.7,41.4 29.7,62.1 0.7,1.4 1.5,2.9 2.1,4.4 0.99,2.2 2,4.5 3.09,6.7 19.81,43.6 39.9,86.7 60.51,129.4 2.9,6.2 5.9,12.4 8.99,18.6 36.3,75.4 73.91,149.5 112.41,222.3 867.7,1639.5 2252.3,2624.9 3745.8,3094.3 726.79,228.5 1479.4,334.8 2210.8,334.8 M 25051.4,5489 c -5.3,5.6 -11.1,11 -17.3,16 -44.3,36.1 -88.6,72 -132.9,107.8 -42.7,34.8 -85.4,69.3 -128.1,103.7 -83.3,67.3 -166.6,134.2 -250,200.7 l -0.8,0.7 c -65.6,52.5 -131.2,104.8 -196.8,156.9 -39.7,31.6 -79.4,63 -119.1,94.4 -48.1,38 -96.2,76 -144.4,113.8 -111.1,87.4 -222.2,174.3 -333.3,260.7 -309.8,240.7 -619.7,477.5 -929.6,710.2 -132.3,99.4 -264.7,198 -397,295.9 -503.2,372.2 -1006.3,733.7 -1508.9,1084 -507.1,353.5 -1013.5,695.6 -1518.7,1026 -132,86.3 -263.9,171.9 -395.7,256.6 -295.1,189.6 -589.7,375.2 -883.7,556.5 -72.3,44.7 -144.5,89 -216.7,133.1 -52.2,31.9 -104.4,63.6 -156.5,95.2 24.7,82.5 47.1,164.6 67.1,246.3 33.4,135.7 60.5,270.3 81.4,403.4 0.3,2 0.6,4.1 1,6.1 89.3,575 63.1,1123.1 -72.1,1618.6 -5.3,19.9 -11,39.7 -16.8,59.5 -22.4,76.6 -47.5,151.8 -75.3,225.7 -31.3,83.8 -66,165.8 -104.2,245.8 -210,441.2 -521.2,823 -927.3,1121.3 2.2,342.2 -17.6,676.5 -58.9,1001.6 -7.3,58.7 -15.5,117 -24.3,175.1 -80.2,526.7 -217.8,1027.9 -410.8,1497.7 -9.7,23.8 -19.6,47.4 -29.7,71 -0.5,1.2 -1,2.4 -1.6,3.6 -22.2,52.2 -45.1,104 -68.8,155.4 -8.8,19.2 -17.7,38.3 -26.7,57.3 -5.3,11.4 -10.8,22.8 -16.3,34.2 -4,8.5 -8.1,16.9 -12.3,25.4 -0.6,1.4 -1.2,2.7 -2,4.1 -3.5,7.3 -7.1,14.7 -10.7,22 -12.6,25.5 -25.3,51 -38.3,76.3 -32.6,64 -66.3,127.3 -101.2,189.9 l -0.1,0.1 c -131.5,236.4 -278.9,462.9 -441.8,678.5 -67.4,89.2 -137.4,176.6 -210.1,262.1 -481.3,565.8 -1064.5,1038.3 -1728.5,1404.9 -564,311.6 -1186.2,546.7 -1853.8,697.9 -1481.3,335.6 -3051,220.2 -4449.11,-323.3 -78.89,-30.6 -157.19,-62.6 -234.89,-96 -1551.51,-666 -2746.31,-1810.1 -3462.61,-3313.7 -16.99,-35.4 -33.7,-71 -50,-106.9 -1.8,-3.9 -3.59,-7.8 -5.4,-11.8 -18.4,-38.1 -36.49,-76.3 -54.3,-114.6 -3.79,-8.1 -7.59,-16.3 -11.29,-24.4 -31.1,-67.6 -61.3,-135.7 -90.41,-204.1 -61.5,-144 -118.6,-289.6 -171.39,-436.9 -98.91,-276 -182.71,-557.6 -251.2,-843.8 l -0.4,-1.8 c -0.21,-0.9 -0.4,-1.8 -0.61,-2.7 l -0.1,-0.1 c -21.89,-92.2 -42.29,-184.9 -61.2,-278.1 l -0.3,-1.7 c -15.29,-75.7 -29.49,-151.7 -42.69,-228.1 -13.71,-78.9 -26.2,-158 -37.51,-237.5 -7.8,-54.7 -15.09,-109.6 -21.9,-164.6 l -0.1,-1.2 c -4.69,-38.3 -9.2,-76.6 -13.4,-115 -4.4,-40.5 -8.6,-81.1 -12.4,-121.7 -3.19,-34.7 -6.29,-69.4 -9.1,-104.2 -0.69,-7.5 -1.29,-15.1 -1.89,-22.6 -2.1,-27.2 -4.2,-54.4 -6.01,-81.7 -1.19,-15.5 -2.29,-30.9 -3.09,-46.4 -0.8,-11.4 -1.51,-22.8 -2.2,-34.2 -2.9,-45.6 -5.31,-91.3 -7.21,-137.1 -1.3,-27.3 -2.39,-54.6 -3.29,-82 -10.11,-281.4 -6.6,-565.6 10.5,-852.1 v -0.1 c 3.9,-66.4 8.49,-132.9 13.9,-199.5 1.1,-12.8 2.1,-25.6 3.2,-38.4 l 0.1,-0.1 0.09,-2.3 c 0.8,-8.8 1.51,-17.6 2.31,-26.3 6,-67.6 12.69,-135.3 20.2,-203.1 1.6,-15.1 3.29,-30.1 5.1,-45.2 0.8,-7.7 1.7,-15.4 2.6,-23.1 10.59,-90.4 22.5,-181 35.8,-271.7 10.4,-71.7 21.6,-143.5 33.8,-215.3 v -0.3 c 34,-201.5 74.5,-403.7 121.5,-606.4 75.8,-326.7 168.19,-651.3 276.3,-972.2 517.39,-1535.6 1393.8,-2985.2 2523.4,-4156.6 2214.39,-2410 5550,-4215.8 9914.3,-5367.1 16.7,-4.398 33.8,-6.598 51,-6.598 6.2,0 12.3,0.301 18.4,0.801 1092.1,100.899 2400.3,480.397 3715.6,1011.797 1858,750.5 3730.1,1804.1 5027.1,2803.3 l 0.4,0.3 c 229.2,176.6 440.4,351.5 630.4,522.7 11.7,10.6 22,22.4 30.6,35.1 23.9,34.4 36.5,75.9 35.4,118.5 -1.2,50.5 -21.5,98.3 -56.4,134.1 m -8750.7,9165.3 c -8.8,42.8 -17.2,85.5 -25.4,128.2 1.1,-83.4 0.8,-167.8 -0.9,-253.2 -1.3,-67.5 31.5,-131.1 87.3,-169.1 2,-1.4 4,-2.7 5.9,-4.1 -22.3,95 -43.2,190.1 -62.6,285.1 -1.5,4.4 -2.9,8.7 -4.3,13.1 m 2093.1,-4604.6 c -141.7,89.1 -283.8,177.5 -426.3,265.4 l -0.3,0.5 c -5.7,3.5 -11.5,7 -17.2,10.5 l -0.3,0.5 c -55.5,34.2 -111,68.3 -166.6,102.2 15.6,27.1 30.7,54.4 45.5,81.9 -87.3,134.7 -172.6,271.8 -255.9,411 1.2,4.3 2.3,8.5 3.3,12.7 -0.9,1.5 -1.8,3 -2.6,4.5 6.6,24.7 13,49.3 19.1,74 15.9,63.6 30.4,127.2 43.4,190.9 -53,91.1 -104.6,182.6 -154.9,274.4 -13.4,-99.1 -30.2,-197.2 -50.2,-293.9 -1,-4.9 -2,-9.8 -3,-14.6 -20.1,-96.2 -43.3,-190.9 -69.2,-283.7 -19.9,-71.7 -41.5,-142.3 -64.5,-211.6 -18.2,-54.9 -11.4,-113 15.4,-160.8 16.5,-29.5 40.7,-55.1 71.2,-73.5 22.8,-13.7 45.5,-27.4 68.3,-41.3 77,-46.5 154.1,-93.3 231.3,-140.5 43.7,-26.6 87.4,-53.5 131.2,-80.3 143.7,-88.5 287.7,-177.9 431.7,-268.4 5.1,-3 10.1,-6.2 15.2,-9.5 172.4,-108.1 344.9,-217.8 517.6,-328.9 -130.6,155.9 -259,314.9 -382.2,478.5"
         style="fill:#481c1f;fill-opacity:1;fill-rule:nonzero;stroke:none"
         id="path34" /><path
         d="m 24904.9,5349.9 c -2042.5,-1839.5 -6440,-4025.5 -9255,-4287.5 -3620,951.5 -7283.51,2553.5 -9809.5,5297 l -1,1 v 0.5 c -364.51,555 -498.5,1315.5 -542.51,2025.5 -1372.49,657 -2151.5,2045.5 -2334.5,3509 -11.49,66 -24.99,148.5 -33.99,215 h -0.5 c -243.5,1665.5 -39.5,3414.5 688,4938 2912.5,6220.5 13002,4835 12855.5,-2523 1283.5,-874.5 1490,-2467 1009.5,-3914 2599.5,-1565 5069,-3344 7424,-5261.5"
         style="fill:#ffffff;fill-opacity:1;fill-rule:nonzero;stroke:none"
         id="path36" /><path
         d="m 12467.9,16342.4 c -663,-678 -1697,-945.5 -2628,-815.5 -432,803 -1785.01,2781 -809,3472.5 935,554 2099.5,687 3076.5,553.5 1048,-770.5 1332,-2249 360.5,-3210.5"
         style="fill:#878888;fill-opacity:1;fill-rule:nonzero;stroke:none"
         id="path38" /><path
         d="m 22485.4,7237.9 c -745.5,-1787 -3069,-3679.5 -4959.5,-2362 -854,650 -805.5,1658.5 -331.5,2519.5 373.5,914.5 -304.5,1384.5 -1177.5,1407.5 600.5,508 1121,1103.5 1541.5,1762.5 1693,-1023.5 3331.5,-2137 4927,-3327.5"
         style="fill:#f46b20;fill-opacity:1;fill-rule:nonzero;stroke:none"
         id="path40" /><path
         d="m 15855.9,3066.9 c -72.5,-2548.498 -2532,-1238 -4005,-667.5 -30.5,529 452.5,990.5 976,961.5 392.5,-17.5 727.5,-272.5 1089,-426 618.5,-262.5 1355,-204.5 1940,132"
         style="fill:#f46b20;fill-opacity:1;fill-rule:nonzero;stroke:none"
         id="path42" /><path
         d="m 18082.9,11094.9 c -85.1,-258.3 -203,-505.3 -342.1,-738.9 -35.3,-58.2 -71.5,-115.7 -108.4,-172.8 l -115.8,-167.8 -124.2,-161.5 -130.3,-156.4 c -179.7,-203.2 -375.1,-392 -587.4,-558.7 -211.5,-167.2 -437.9,-315 -678.9,-432 -38.7,-18.7 -85.2,-2.6 -104,36 -15.3,31.5 -7.4,68.2 16.9,90.9 l 0.3,0.3 c 190.5,177.2 373.5,356 545.6,543.1 171.4,187.6 333.9,381 483,583.5 l 110.8,152.2 105.7,155.6 102.4,157.4 c 32,53.9 64.6,107.3 98.1,160.1 128.1,215.1 244.9,436.2 358.3,661 l 0.5,1 c 49.9,98.9 170.5,138.6 269.4,88.7 89.8,-45.3 130.7,-149 100.1,-241.7"
         style="fill:#481c1f;fill-opacity:1;fill-rule:nonzero;stroke:none"
         id="path44" /><path
         d="m 12301.9,16816.9 c -702,482.5 -1434.5,919.5 -2192.5,1308 -193,137.5 -454.5,61.5 -500.51,-184.5 73.01,-1640 1427.51,-2209.5 2693.01,-1123.5"
         style="fill:#f89a5b;fill-opacity:1;fill-rule:nonzero;stroke:none"
         id="path46" /><path
         d="m 24748.6,5476.8 c -18.6,15.1 -37.1,30 -55.7,45.1 18.7,-15 37.2,-30 55.8,-45 v 0 0 l -0.1,-0.1 m -63.9,51.7 c -50.3,40.6 -100.8,81.4 -151.2,121.9 50.5,-40.6 100.9,-81.2 151.2,-121.9"
         style="fill:#481c1f;fill-opacity:1;fill-rule:nonzero;stroke:none"
         id="path48" /><path
         d="m 5541.77,6988.9 c -102.15,119.5 -201.31,240.8 -297.37,363.9 -370.5,474.2 -696.5,973.8 -976.21,1490.6 -106.89,197.4 -207.1,397.4 -300.4,599.4 v 0 c 353.63,-436.6 796.74,-801.6 1329.1,-1056.4 29.03,-468.3 97.22,-958.7 244.88,-1397.5"
         style="fill:#481c1f;fill-opacity:1;fill-rule:nonzero;stroke:none"
         id="path50" /><path
         d="m 15658.7,1267.5 c -170.3,45.2 -339.1,91.4 -506.2,138.5 -16.1,4.6 -32.2,9.1 -48.2,13.7 -152.6,43.3 -303.7,87.5 -453.5,132.5 674,15.3 1173,387.6 1205.1,1514.7 -338.7,-194.8 -728,-296.3 -1115.9,-296.3 -282.2,0.1 -563.7,53.8 -824.1,164.3 -145.7,61.9 -287.2,140.2 -429.8,212.9 h 0.1 c 127.3,-22.1 247.9,-32.7 362.1,-32.6 1071.6,0 1580.7,927.3 1727.8,1928.2 52.4,356.2 59,721.6 28.8,1058 32.1,-40.7 61.8,-82.8 89.3,-126.2 560,-882.7 229.9,-2295 1219.2,-2887.8 292.7,-109.8 598.5,-157.6 909.6,-157.6 1118.2,0.1 2304.6,616.8 3192.9,1185.1 402.9,282.9 352.5,890.5 -86,1114.8 300.4,234.8 577,508.5 818.5,802.9 665.4,-250.9 1375,-375.1 2056.4,-375.1 129.6,0 258.5,4.5 385.6,13.5 22,1.6 43.9,3.3 65.7,5.1 26.5,-0.9 53,-1.4 79.4,-1.4 53.9,0 107.4,1.9 160.7,5.6 v 0 c 12.4,-10 24.9,-19.9 37.3,-29.9 50.4,-40.5 100.9,-81.3 151.2,-121.9 2.4,-1.9 4.8,-3.9 7.2,-5.8 0.3,-0.3 0.7,-0.6 1,-0.8 18.6,-15.1 37.1,-30 55.7,-45.1 v 0 c -50.4,-44.2 -101.1,-88.2 -152.1,-131.8 -85.2,-72.8 -171.2,-144.6 -258,-215.5 l -2.2,-1.8 C 22894.9,3951.1 21241.9,3043 19577.6,2383.7 18244.2,1855.4 16903.6,1486.8 15658.7,1267.5 m -3802.2,1286.7 c -62.5,26.6 -124.7,53.3 -186.6,80.3 -1322.8,575.6 -2502.8,1235.6 -3535.7,1977.7 -499.31,358.7 -964.11,736.6 -1394.11,1133.5 -268.39,247.6 -523.2,502.6 -764.29,765 -150.1,155.7 -294.81,315.2 -433.91,478.1 -0.03,0 -0.08,0.1 -0.12,0.1 -147.66,438.8 -215.85,929.2 -244.88,1397.5 -532.36,254.8 -975.47,619.8 -1329.1,1056.4 -164.3,355.7 -307.39,717.8 -428.7,1083.8 -76,228.9 -143.4,459.4 -202.19,690.7 v 0 c 519.6,-1024.1 1289.4,-2130.7 2376,-2497.4 -1.7,-45.1 -2.61,-89.4 -2.7,-132.9 -0.2,-135.4 7.4,-263.5 22.3,-384.6 173.45,-1405.2 1337.15,-1873.2 2751.8,-1873.1 1656.1,0.1 3655.9,641.8 4811.1,1172.6 708.5,325.5 1597.5,782 2070.5,1401.5 2569,3030 -1086.5,5523 157,8435.5 -228.9,516.9 -496.8,1012.4 -801,1481.8 137.6,-142.5 269.7,-292 395.9,-448.2 l 0.3,-0.4 c 218.5,-270.5 419.2,-561.2 600.1,-871 10.4,-17.9 23.4,-33.8 38.3,-47.2 v 0 0 c -5,-44.3 -9.6,-88.8 -13.8,-133.4 -83.4,-881.8 -27.1,-1806.8 168.3,-2756.9 1.3,-6.5 3,-12.9 5,-19.2 0.8,-2.5 1.5,-4.9 2.4,-7.4 v 0 c 255.9,-1236.8 742.8,-2479.6 1440.2,-3651 28.6,-47.9 57.5,-95.8 86.8,-143.5 -29.7,-52.5 -59.9,-104.7 -90.8,-156.6 -33.5,-52.8 -66.1,-106.2 -98.1,-160.1 l -102.4,-157.4 -105.7,-155.6 -110.8,-152.2 c -149.1,-202.5 -311.6,-395.9 -483,-583.5 C 16282.5,9190 16099.5,9011.2 15909,8834 l -0.3,-0.3 c -24.3,-22.7 -32.2,-59.4 -16.9,-90.9 13.5,-27.7 41.2,-43.8 70,-43.8 11.4,0 23,2.5 34,7.8 56.9,27.6 112.9,56.9 168.2,87.8 35.4,-3.1 70.3,-6.9 104.8,-11.6 v 0 c -456.2,-424.2 -959.7,-796.6 -1498.9,-1104.7 -178.9,-102.2 -361.7,-197.3 -548,-284.9 127.8,38.7 255.7,76.4 384.3,112.5 29.3,8.2 58.7,16.4 88.2,24.5 v 0 0 c -442.4,-449.4 -936.7,-846.3 -1469,-1183.7 -175.2,-111.1 -354.6,-215.7 -537.6,-313.5 -451.7,-241.8 -925.4,-442.6 -1413.4,-598.3 -342.2,-109.3 -527.3,-416.5 -527.5,-727.1 -0.2,-234.9 105.5,-471.8 329,-626.4 377.4,-261 817.3,-458.3 1266.1,-613.3 114.7,-39.7 230,-76.6 344.8,-111 -415.4,-45.3 -776.3,-388.1 -830.3,-802.9"
         style="fill:#ded1d1;fill-opacity:1;fill-rule:nonzero;stroke:none"
         id="path52" /><path
         d="m 20929.9,5229.7 c -0.1,0 -0.1,0 -0.1,0 l -0.4,0.2 c -1919,944.6 -2461,3110.6 -3335.1,4898.1 l 38.1,55.2 c 28.8,44.5 57.2,89.4 85,134.5 22.7,-33.8 45.6,-67.7 68.6,-101.5 8.4,-12.8 16.9,-25.5 25.5,-38.2 339,-506.5 735.2,-959.8 1118.7,-1398.5 l 30.8,-35.2 13.7,-15.7 c 14.5,-41.1 29.5,-81.9 45.2,-122.1 492.4,-1272.4 1539.8,-2125.5 2728.5,-2573.9 v 0 c -241.5,-294.4 -518.1,-568.1 -818.5,-802.9 M 16268.8,8783 c -34.5,4.7 -69.4,8.5 -104.8,11.6 116.9,65.4 230.3,137.9 339.9,215.9 -76.9,-77.4 -155.2,-153.2 -235.1,-227.5"
         style="fill:#d85c1d;fill-opacity:1;fill-rule:nonzero;stroke:none"
         id="path54" /><path
         d="m 14650.8,1552.2 h -0.1 c -991.2,297.7 -1923,631.9 -2794.2,1002 v 0 c 54,414.8 414.9,757.6 830.3,802.9 0.1,0 0.1,0 0.1,0 107,-32.1 213.8,-62.1 319.5,-90.4 162.9,-43.5 323.5,-82.7 479,-118.8 l 0.7,-0.1 c 142.6,-72.7 284.1,-151 429.8,-212.9 260.4,-110.5 541.9,-164.2 824.1,-164.3 387.9,0 777.2,101.5 1115.9,296.3 -32.1,-1127.1 -531.1,-1499.4 -1205.1,-1514.7"
         style="fill:#d85c1d;fill-opacity:1;fill-rule:nonzero;stroke:none"
         id="path56" /><path
         d="m 15961.8,8699 c -28.8,0 -56.5,16.1 -70,43.8 -15.3,31.5 -7.4,68.2 16.9,90.9 l 0.3,0.3 c 190.5,177.2 373.5,356 545.6,543.1 171.4,187.6 333.9,381 483,583.5 l 110.8,152.2 105.7,155.6 102.4,157.4 c 32,53.9 64.6,107.3 98.1,160.1 30.9,51.9 61.1,104.1 90.8,156.6 v 0 c 16.9,-27.6 34,-55.2 51.2,-82.8 19.4,-31.1 39,-62.2 58.7,-93.2 0.6,-1 1.3,-2 1.9,-3 52.3,-82.3 105.7,-164.2 160.2,-245.7 0,0 0,0 0,-0.1 -27.8,-45.1 -56.2,-90 -85,-134.5 l -38.1,-55.2 v 0 c -22,45.2 -44.3,90.2 -66.9,134.9 -299,-449.1 -642.7,-869.3 -1023.4,-1252.3 l -0.1,-0.1 c -109.6,-78 -223,-150.5 -339.9,-215.9 -55.3,-30.9 -111.3,-60.2 -168.2,-87.8 -11,-5.3 -22.6,-7.8 -34,-7.8"
         style="fill:#481c1f;fill-opacity:1;fill-rule:nonzero;stroke:none"
         id="path58" /><path
         d="m 29003.9,13000.9 c -204.5,-2346 -1262.5,-4590 -2828,-6338.5 -461,-555.5 -1195,-714 -1940.5,-774 -2085.5,-173.5 -4356.5,866 -5075.5,2907 -383.5,501.5 -858.5,973 -1212,1534 -1439.5,2149 -2429.5,4942 -1902.5,7511.5 1640,2358.5 4205,3647 6942.5,3094 l 0.5,-0.5 c 3695.5,-514 6317.5,-4258.5 6015.5,-7933.5"
         style="fill:#ffffff;fill-opacity:1;fill-rule:nonzero;stroke:none"
         id="path60" /><path
         d="m 23801.1,6057.3 c -33.5,0 -67,0.4 -100.6,1 -47.9,0.8 -95.9,2.4 -144.1,4.6 -519.7,23.9 -1050.8,124 -1556.4,301.7 -1165.4,409.4 -2195.6,1230.6 -2641.9,2479.5 -6,17 -12,34.2 -17.9,51.4 -8.4,24.6 -21.5,47.3 -38.7,66.9 l -70.1,80.3 c -114.8,131.2 -230.6,263.8 -345.6,398.6 -36.7,43.1 -73.4,86.3 -109.8,129.9 -130.6,155.9 -259,314.9 -382.2,478.5 l -0.9,1.2 -0.1,0.1 c -95.2,126.5 -187.3,255.6 -274.7,388.1 -7.7,11.3 -15.3,22.5 -23,33.8 -55.1,81.4 -109.1,163.2 -162,245.4 -49,76.1 -97.1,152.5 -144.1,229.2 -42,68.4 -83.2,137 -123.7,205.9 -9.6,16.3 -19.1,32.6 -28.5,48.9 l -0.9,1.5 c -53,91.1 -104.6,182.6 -154.9,274.4 -386.3,705.7 -694.6,1433.4 -920.3,2165.7 215.7,-179.5 469.1,-333 743.1,-449.4 80.2,-34.2 162.2,-65.1 245.6,-92.6 l 2.4,-0.8 c 75.9,-24.9 152.9,-47 230.7,-66 25.5,-6.3 51,-12.2 76.7,-17.8 -840.4,-528.5 -124.5,-2267 1255.3,-2267 423.4,0 909.2,163.6 1431.9,576.1 C 19250.6,9179.9 22089.8,7123 24224.7,7123 c 1105.9,0 2022.7,551.8 2078.2,1928.9 1345.1,183.2 2126.2,2069.3 2318.3,4101 25.6,-515.3 4.1,-1044.5 -69.5,-1584.6 -0.1,-0.1 -0.1,-0.3 -0.1,-0.4 -19.6,-90.4 -40.8,-180.7 -63.4,-270.9 v 0 c -177.2,-626.4 -418.5,-1281.3 -700.9,-1893.4 v 0 l -0.9,-1.9 c -41.9,-86.9 -84.8,-173.2 -128.8,-258.6 -102.2,-198.9 -209.9,-393.9 -322.7,-584.9 -215.2,-364.2 -449.1,-714.1 -699.6,-1050 -62,-83.1 -125,-165.4 -188.9,-246.8 v 0 c -132.7,-151.4 -274,-297.2 -423.4,-431.7 -485.8,-437.4 -1056.3,-755 -1688.7,-755 -2.9,0 -5.8,0 -8.8,0.1 -21.9,0 -44.1,0.5 -66.2,1.4 -2.9,0.1 -5.8,0.2 -8.7,0.2 -5.4,0 -10.8,-0.2 -16.3,-0.7 -71.8,-6.1 -144.1,-10.8 -216.9,-13.8 l -0.4,-0.1 c -11.4,-0.4 -22.8,-0.9 -34.2,-1.2 -60.3,-2.2 -120.9,-3.3 -181.7,-3.3 m -4361.2,6413 c -383.5,0 -758.9,155.3 -1047.6,482.3 1.2,0 2.3,-0.1 3.5,-0.1 20.4,-0.5 40.6,-0.7 60.8,-0.7 1071.7,0 1917,642.2 2324.9,1770.1 265.8,735.6 482.2,1496.7 691.5,2232.8 l 35.2,123.9 c 370.4,1300.1 883.2,1713.8 1335.7,2078.7 227.4,183.5 445.6,359.5 601.3,624.4 0,0 0,0 0,0 -35.8,-305 -135.6,-598.5 -263.8,-789.8 -1108,-1748 -1372.5,-2658.5 -2031,-5032 -265.9,-959 -1001.9,-1489.6 -1710.5,-1489.6"
         style="fill:#ded1d1;fill-opacity:1;fill-rule:nonzero;stroke:none"
         id="path62" /><path
         d="m 23393.4,20167.9 c -309,-1019.5 -1435,-768 -2080.5,-3034.5 -224,-787 -444.5,-1573.5 -722.5,-2343.5 -968,-2678 -4052.5,-1578 -4486.5,-186 -201,978 -259,1970 -139,2929.5 1543.5,2982.5 4715.5,3875 7022.5,3401.5 250,-190 441,-450.5 406,-767"
         style="fill:#b53f39;fill-opacity:1;fill-rule:nonzero;stroke:none"
         id="path64" /><path
         d="m 25111.4,5806.7 c -69.4,-65.3 -139.5,-130 -210.2,-193.9 -50.5,-45.6 -101.3,-90.9 -152.5,-135.9 l -0.1,-0.1 c -50.4,-44.2 -101.1,-88.2 -152.1,-131.8 -85.2,-72.8 -171.2,-144.6 -258,-215.5 l -2.2,-1.8 C 22894.9,3951.1 21241.9,3043 19577.6,2383.7 c -1333.4,-528.3 -2674,-896.9 -3918.9,-1116.2 -170.3,45.2 -339.1,91.4 -506.2,138.5 -16.1,4.6 -32.2,9.1 -48.2,13.7 -152.6,43.3 -303.8,87.5 -453.6,132.5 -991.2,297.7 -1923,631.9 -2794.2,1002 -62.5,26.6 -124.7,53.3 -186.6,80.3 -1322.8,575.6 -2502.8,1235.6 -3535.7,1977.7 -499.31,358.7 -964.11,736.6 -1394.11,1133.5 -268.39,247.6 -523.2,502.6 -764.29,765 -150.1,155.7 -294.81,315.2 -433.91,478.1 -102.19,119.5 -201.4,240.9 -297.49,364 -370.5,474.2 -696.5,973.8 -976.21,1490.6 -106.89,197.4 -207.1,397.4 -300.4,599.4 -164.3,355.7 -307.39,717.8 -428.7,1083.8 -76,228.9 -143.4,459.4 -202.19,690.7 -83.7,329.7 -150.01,661.1 -198.31,992.7 -12.59,86.5 -23.99,173 -34.1,259.5 -9.49,80.2 -17.9,160.4 -25.19,240.5 -90.8,994.3 -18.61,1981.2 226.6,2913.1 9.39,35.8 19.1,71.6 29.1,107.3 9.8,35 19.8,70 30,104.8 37.6,127.7 78.49,254.3 122.79,379.6 4.61,13.2 9.31,26.3 14.01,39.4 12.5,35 25.4,70 38.49,104.8 14.6,38.6 29.51,77.1 44.6,115.5 11.41,28.7 22.91,57.3 34.71,85.8 7.39,18 14.79,36 22.39,53.9 l 0.2,0.4 c 6.71,16.2 13.61,32.3 20.5,48.4 34.01,79.3 69.51,158.1 106.41,236.2 9.99,21.3 20.1,42.5 30.39,63.7 1.51,3.2 3.01,6.3 4.6,9.5 20.81,43.7 42.11,87.1 64.01,130.1 2.99,6.2 6.2,12.4 9.4,18.6 38.3,75.4 78,149.8 118.99,223.3 817.41,1465 2153.21,2554.9 3735.31,3092.6 626.3,212.9 1291.2,339.3 1977.69,368.2 98.11,4.1 195.7,6.1 293.11,6.1 1274.7,0 2476.2,-351.9 3504.4,-1000.8 439.2,-277.2 846.8,-608.6 1214.9,-989.8 137.6,-142.5 269.7,-292 395.9,-448.2 l 0.3,-0.4 c 218.5,-270.5 419.2,-561.2 600.1,-871 10.4,-17.9 23.4,-33.8 38.3,-47.2 l 1.6,-1.5 c 36,-32.1 83.1,-50.5 132.8,-50.5 h 1 c 8.2,0 16.3,0.6 24.3,1.6 6.1,0.8 12.2,1.8 18.2,3.2 5.5,1.2 10.9,2.6 16.2,4.3 6.2,1.9 12.2,4.1 18.2,6.7 1.3,0.5 2.6,1.1 3.9,1.7 15.1,6.8 29.4,15.4 42.4,25.8 19.7,15.5 36.6,35 49.5,57.6 5.6,9.9 11.3,19.7 17,29.5 40.2,69.7 81.5,138.5 123.8,206.2 54.6,87.4 110.9,173.2 169,257.3 612.3,888.4 1411.1,1590.7 2346.1,2071.9 l 0.1,0.1 c 72.7,37.4 146.2,73.4 220.5,108.1 536.4,250.6 1114.4,430.8 1725.3,534.2 763.2,129.2 1529.1,130.4 2270.3,11 17.4,-2.7 34.7,-5.6 52.1,-8.5 89.8,-15.2 179.2,-32.1 268.2,-50.8 21.1,-4.5 42.1,-9 63.1,-13.6 68.3,-15 136.3,-31.1 204,-48.2 53,-13.3 105.9,-27.3 158.6,-42 975.4,-270.8 1888.8,-757.3 2673,-1440.5 889.1,-767.6 1549.4,-1791.9 1949.8,-2948.2 152,-438.9 266.5,-896.7 341.8,-1366.8 167.1,-1043 141.5,-2146 -95.7,-3234.6 -19.6,-90.4 -40.8,-180.7 -63.4,-270.9 -27.6,-110.2 -57.5,-220.1 -89.5,-329.8 -166.7,-545.4 -372,-1066.5 -611.4,-1563.6 l -0.9,-1.9 c -41.9,-86.9 -84.8,-173.2 -128.8,-258.6 -102.2,-198.9 -209.9,-393.9 -322.7,-584.9 -215.2,-364.2 -449.1,-714.1 -699.6,-1050 -62,-83.1 -125,-165.4 -188.9,-246.8 -163.1,-207.5 -332.5,-409.5 -507.6,-605.9 -59.5,-66.7 -119.6,-132.7 -180.5,-198.2 -97.8,-105.3 -197.3,-209 -298.6,-311.1 -114,-115.2 -230.2,-228.4 -348.3,-339.5 m 3530,10608.1 c -426.5,1175.3 -1111.3,2217.2 -2023.6,3004.9 -825.8,719.4 -1787.2,1232.7 -2813.7,1520 l -1.6,0.5 c -229.3,64.1 -461.9,116.9 -696.9,158.3 -816.5,143.8 -1662.8,148.8 -2506,6 -670,-113.5 -1302.9,-314 -1888.2,-594.1 -35.2,-16.9 -70.3,-34.1 -105.1,-51.5 -1105,-552.5 -2034.7,-1393.2 -2717.2,-2471.9 -142.6,221.2 -295.1,432.4 -456.9,633.1 -549.8,682.3 -1206.1,1243.5 -1938.6,1667 -1123.8,649.9 -2427.1,975.7 -3800.91,917.7 -877.99,-36.9 -1722.5,-224.8 -2502,-543.1 -1593.3,-650.3 -2914.89,-1845.3 -3695,-3409.2 -17.79,-35.6 -35.29,-71.4 -52.5,-107.4 -1.39,-3 -2.89,-6 -4.29,-9 -18.9,-39 -37.51,-78.2 -55.71,-117.5 -3.8,-8.1 -7.6,-16.3 -11.3,-24.4 -31.09,-67.6 -61.29,-135.7 -90.39,-204.1 -61.41,-143.9 -118.5,-289.6 -171.3,-436.8 -98.9,-276 -182.61,-557.5 -251,-843.8 l -0.4,-1.8 c -0.3,-0.9 -0.5,-1.9 -0.71,-2.8 -22,-92.2 -42.4,-184.9 -61.2,-278.1 l -0.3,-1.7 c -15.39,-75.7 -29.6,-151.8 -42.69,-228.1 -13.71,-78.9 -26.2,-158 -37.51,-237.5 -7.9,-54.7 -15.19,-109.6 -21.9,-164.6 l -0.1,-1.2 c -4.79,-38.3 -9.2,-76.6 -13.4,-115 -4.4,-40.5 -8.6,-81.1 -12.4,-121.7 -3.19,-34.7 -6.29,-69.4 -9.1,-104.2 -0.69,-7.5 -1.29,-15.1 -1.89,-22.6 -2.2,-27.2 -4.2,-54.4 -6.01,-81.7 -1.19,-15.5 -2.29,-30.9 -3.09,-46.4 -0.8,-11.4 -1.51,-22.8 -2.2,-34.2 -2.9,-45.6 -5.31,-91.3 -7.21,-137.1 -1.3,-27.3 -2.39,-54.6 -3.29,-82 -10.11,-281.4 -6.6,-565.6 10.5,-852.1 v -0.1 c 3.9,-66.4 8.49,-132.9 13.9,-199.5 1.1,-12.8 2.19,-25.7 3.3,-38.5 l 0.2,-2.3 c 0.69,-8.7 1.49,-17.5 2.2,-26.3 6,-67.6 12.69,-135.3 20.2,-203.1 1.6,-15.1 3.29,-30.1 5.1,-45.2 0.8,-7.7 1.7,-15.4 2.6,-23.1 10.59,-90.4 22.5,-180.9 35.8,-271.7 10.4,-71.6 21.7,-143.4 33.8,-215.3 34,-201.4 74.5,-403.6 121.5,-606.2 76,-327.5 168.69,-652.9 277.2,-974.6 C 3679.5,8856 4555.5,7407.4 5684.6,6236.6 7898.8,3826.7 11234.5,2021 15598.9,869.602 c 16.7,-4.5 33.8,-6.7 51,-6.7 11.4,0 22.9,1 34.2,2.899 1258.3,218.599 2506,560.899 3699.8,1009.199 1542.3,579.3 2994.7,1335.5 4263.8,2230.8 262.8,185.4 517.3,376.3 763.3,572.5 l 0.4,0.3 c 227.7,181.5 448.1,367.5 661,557.8 581.9,519.9 1108.3,1071.7 1575.8,1651.1 618.2,765.9 1133.5,1579.8 1538.1,2431.7 236.9,498.4 435.8,1009.9 595.4,1532.2 l 0.6,2.4 c 41.3,141.2 79,282.8 113.3,424.8 424.5,1758.3 315.5,3566.3 -254.2,5136.2"
         style="fill:#481c1f;fill-opacity:1;fill-rule:nonzero;stroke:none"
         id="path66" /><path
         d="m 12470.9,16342.4 c -663,-678 -1697,-945.5 -2628.01,-815.5 -413.5,738 -1789.49,2848 -808.99,3472.5 939.5,552.5 2074,687 3076.5,553.5 1054.5,-788.5 1333,-2233 360.5,-3210.5"
         style="fill:#f46b20;fill-opacity:1;fill-rule:nonzero;stroke:none"
         id="path68" /><path
         d="m 8693.03,18101.5 c -38.64,264.8 -11.37,515.9 147.73,719.1 -75.88,-103.2 -120.67,-225.3 -140.34,-360.7 -18.77,-112.1 -20.1,-232.3 -7.39,-358.4"
         style="fill:#ffffff;fill-opacity:1;fill-rule:nonzero;stroke:none"
         id="path70" /><path
         d="m 8725.8,17931.8 c -13.46,57 -24.59,113.7 -32.77,169.7 -12.71,126.1 -11.38,246.3 7.39,358.4 -23.24,-160 -11.45,-338.9 25.38,-528.1"
         style="fill:#d3d2d0;fill-opacity:1;fill-rule:nonzero;stroke:none"
         id="path72" /><path
         d="m 9125.9,16833.4 c -0.34,0.9 -0.65,1.9 -0.99,2.8 0.28,-0.6 0.55,-1.2 0.83,-1.8 0.05,-0.3 0.11,-0.7 0.16,-1 m -244.18,615.5 c -61.17,158.5 -117.85,321.8 -155.92,482.9 -36.83,189.2 -48.62,368.1 -25.38,528.1 19.67,135.4 64.46,257.5 140.34,360.7 50.43,64.4 114.11,124.1 193.14,177.8 716.03,424.5 1566.9,601.5 2364.9,601.5 186,0 369.2,-9.7 547.1,-28 -376,-91 -976.5,-179.5 -1540.5,-343.5 8,-6.5 13.5,-14 16.5,-22.5 27,-77 -157,-213 -411.5,-303.5 -140.97,-50.2 -274.17,-76.1 -369.48,-76.1 -57.5,0 -101.19,9.4 -124.52,28.6 -315.5,-201.5 -531.5,-467 -545.5,-826 11.88,-126.7 25.16,-253.3 39.87,-379.8 -104.53,110.9 -200.04,233 -284.87,366.3 40.98,-192.8 93.62,-381.3 155.82,-566.5"
         style="fill:#fbc39f;fill-opacity:1;fill-rule:nonzero;stroke:none"
         id="path74" /><path
         d="m 9817.05,15568.9 c -207.12,337.5 -406.84,680.7 -581.52,1034.3 59.04,-112.4 119.03,-221.9 178.07,-327.3 118.37,-213.8 232.37,-407.7 324.88,-567 28.24,-49.5 54.55,-96.2 78.57,-140"
         style="fill:#ded1d1;fill-opacity:1;fill-rule:nonzero;stroke:none"
         id="path76" /><path
         d="m 10302.9,15495.1 c -154.8,0 -308.68,10.7 -460.01,31.8 -8.63,14 -17.24,28 -25.84,42 -24.02,43.8 -50.33,90.5 -78.57,140 39.08,-67.2 74.28,-128.2 104.41,-182 151.33,-21.1 305.21,-31.8 460.01,-31.8 v 0 m -889.3,780.8 c -59.04,105.4 -119.03,214.9 -178.07,327.3 -19.53,39.5 -38.74,79.1 -57.62,118.9 77.18,-154.6 157.43,-304.8 235.69,-446.2"
         style="fill:#796f72;fill-opacity:1;fill-rule:nonzero;stroke:none"
         id="path78" /><path
         d="m 13044.8,17439.2 c 22.6,139.7 29.4,280.8 21.4,421.1 4.4,6 8.8,12.1 13.2,18.1 5.6,-146.7 -6.5,-294.1 -34.6,-439.2"
         style="fill:#ded1d1;fill-opacity:1;fill-rule:nonzero;stroke:none"
         id="path80" /><path
         d="m 10304.6,15495.1 c -0.6,0 -1.1,0 -1.7,0 -154.8,0 -308.68,10.7 -460.01,31.8 -30.13,53.8 -65.33,114.8 -104.41,182 -92.51,159.3 -206.51,353.2 -324.88,567 -78.26,141.4 -158.51,291.6 -235.69,446.2 -17.71,37.4 -35.08,74.7 -52.17,112.3 -45.03,270.6 -83.29,542.3 -114.97,814.7 155.74,-165.3 331.52,-305.7 520.83,-420.9 158.5,-498.3 464.7,-867 886.3,-1049.5 186.6,-80.7 384.4,-120.4 588.4,-120.4 465.9,0 963.4,207.4 1428.9,606.9 47.1,40.4 72.7,100.4 69.4,162.4 -3.3,62 -35.2,119 -86.4,154.2 -72,49.4 -144.3,98.5 -217.1,147.1 331.8,169.6 629.7,413 865.1,731.4 8,-140.3 1.2,-281.4 -21.4,-421.1 -78.9,-408.1 -284,-797.3 -573.9,-1096.8 v 0 c -554.8,-567.4 -1369.7,-847.3 -2166.3,-847.3 m -1179.69,1341.1 c -91.08,200.3 -173.2,404.3 -243.19,612.7 85.08,-220.4 178.84,-431.2 243.19,-612.7"
         style="fill:#d85c1d;fill-opacity:1;fill-rule:nonzero;stroke:none"
         id="path82" /><path
         d="m 9125.74,16834.4 c -0.28,0.6 -0.55,1.2 -0.83,1.8 -64.35,181.5 -158.11,392.3 -243.19,612.7 -62.2,185.2 -114.84,373.7 -155.82,566.5 84.83,-133.3 180.34,-255.4 284.87,-366.3 31.68,-272.4 69.94,-544.1 114.97,-814.7"
         style="fill:#d9a082;fill-opacity:1;fill-rule:nonzero;stroke:none"
         id="path84" /><path
         d="m 20860.4,12533.9 c 47.5,2778 4180,2778 4227,0 -47,-2778.5 -4179.5,-2778 -4227,0"
         style="fill:#b53f39;fill-opacity:1;fill-rule:nonzero;stroke:none"
         id="path86" /><path
         d="m 9860.78,15311.2 c -186.82,275.5 -379.91,554.9 -558.59,844.4 -180.01,288.9 -348,588.1 -492.9,903.7 -141.38,316.5 -268.06,648.7 -310.08,1020.4 -17.9,184.9 -17.97,384.2 49.73,582.2 17.73,49 34.4,98.2 61.16,144.6 12.64,23.4 23.87,47.4 38.16,69.8 l 46.24,65.3 23.53,32.4 c 8.47,10.2 17.9,19.6 26.88,29.4 l 55.01,57.6 c 37.99,36.5 80.56,66.6 121.29,99.3 2.12,1.7 4.29,3.2 6.56,4.5 l 5.98,3.6 c 244.66,143.8 506.01,255.2 772.66,343.3 266.65,89 541.69,146.7 817.39,185 276.2,35.8 554.3,50 830.7,39 276.3,-9.9 551.2,-42.8 819.9,-101 48.8,-10.6 79.8,-58.7 69.2,-107.5 -9.6,-44.6 -50.5,-74.3 -94.7,-71.1 h -0.5 c -264.8,18.7 -529.3,21.7 -791.9,7.8 -262.6,-15.1 -523.3,-45 -779,-96 -256.3,-48.3 -506.5,-120.1 -749.19,-207.6 -242.58,-88.3 -474.56,-200.7 -694.26,-330.9 l 12.52,8.1 c -105.93,-76.4 -177.41,-176.8 -217.38,-300 -40.41,-122.7 -46.68,-268.6 -31.59,-417.5 14.04,-149.6 49.53,-302.9 93.41,-455.8 43.87,-153.1 100.48,-305.4 162.47,-456.4 122.34,-303.1 269.22,-600.9 420.95,-898.2 151.39,-298.1 314.18,-591.2 459.57,-902 23.3,-49.7 1.8,-108.8 -47.88,-132.1 -44.87,-21 -97.43,-5.6 -124.34,34.2 l -1,1.5"
         style="fill:#481c1f;fill-opacity:1;fill-rule:nonzero;stroke:none"
         id="path88" /><path
         d="m 12304.9,16816.4 c -2185,-1812 -3203,1292 -2438,1379.5 873,-293 1656.5,-888 2438,-1379.5"
         style="fill:#f06a7d;fill-opacity:1;fill-rule:nonzero;stroke:none"
         id="path90" /><path
         d="m 10086.9,16973.5 c -158.1,245.8 -253.31,569.3 -273.9,948.7 9.7,31.5 27.8,52.7 53.9,63.2 37.99,15.4 87.7,6.4 129.5,-23.4 7.9,-5.6 16.2,-10.7 24.8,-15.1 135.7,-69.5 270.7,-140.8 405.1,-213.7 449.8,-243.9 891.7,-506.5 1321.4,-784.9 72.9,-47.2 145.4,-94.9 217.5,-143 -448.4,-315.2 -906.6,-420.4 -1295.6,-294.4 -31.4,10.1 -62.3,21.7 -92.7,34.9 -199,86.2 -364.4,232.4 -490,427.7 m 2417.7,-145.9 c -3.3,62 -35.2,119 -86.4,154.2 -72,49.4 -144.3,98.5 -217.1,147.1 -637.9,426.1 -1304.7,818.3 -1985.8,1168 -151.9,102.1 -336.9,124.6 -498,59.5 -158.9,-64.1 -268.9,-202.3 -302.01,-379.2 -2.79,-15.1 -3.9,-30.4 -3.19,-45.7 11.39,-255.1 51.99,-491 119.49,-703.3 158.51,-498.3 464.71,-867 886.31,-1049.5 186.6,-80.7 384.4,-120.4 588.4,-120.4 465.9,0 963.4,207.4 1428.9,606.9 47.1,40.4 72.7,100.4 69.4,162.4"
         style="fill:#481c1f;fill-opacity:1;fill-rule:nonzero;stroke:none"
         id="path92" /><path
         d="m 23696.3,5669.8 c -24,0 -48.3,4.4 -72.1,13.6 -103,39.8 -154.2,155.6 -114.3,258.7 64.6,167.1 125.7,324.9 212.2,584.5 35,104.9 148.6,161.3 253,126.5 104.8,-34.9 161.4,-148.1 126.5,-252.9 -83.3,-250 -140.7,-400.9 -218.7,-602.5 -30.6,-79.3 -106.3,-127.9 -186.6,-127.9"
         style="fill:#481c1f;fill-opacity:1;fill-rule:nonzero;stroke:none"
         id="path94" /><path
         d="m 8570.62,6678 c -258.94,0 -525.78,106.6 -701.9,359.6 -63.09,90.7 -40.78,215.3 49.9,278.4 90.72,63.2 215.33,40.8 278.42,-49.9 143.36,-206 416.99,-225.1 601.71,-138.4 82.56,38.8 266.89,157.1 194.87,418 -25.93,93.8 19.43,192.6 107.47,234.1 87.94,41.5 193.16,13.6 249.02,-66 232.42,-331.4 612.6,-372.1 890.79,-299.7 278.4,72.4 590.6,293.4 632.1,696.3 11.3,109.8 108.5,190.2 219.4,178.4 109.9,-11.2 189.7,-109.5 178.4,-219.4 -51.4,-499.8 -416.1,-908.9 -929.1,-1042.4 -349.94,-91.1 -702.18,-36.5 -982.31,138 -67.72,-169.5 -201.71,-310.7 -390.72,-399.4 -119.88,-56.3 -257.82,-87.6 -398.05,-87.6"
         style="fill:#481c1f;fill-opacity:1;fill-rule:nonzero;stroke:none"
         id="path96" /><path
         d="m 14723.6,7588.9 c -387.5,-280.1 -801.5,-520.4 -1227.2,-735 -212.1,-109.5 -429.5,-207.3 -647.4,-304.2 -109.8,-46.7 -219.6,-93.2 -330.6,-136.9 -110.4,-44.9 -221.6,-88.2 -333.5,-129.5 -447.5,-165.6 -902.9,-311.2 -1365.5,-434.5 -462.3,-123.9 -932.67,-223.4 -1410.99,-287.4 -238.55,-34.8 -480.27,-54.3 -722.46,-69.6 l -182.47,-5.7 c -60.77,-2.2 -121.65,-3.3 -182.86,-1.7 l -183.28,2.3 -183.86,10.2 c -245.07,17.2 -491.4,45.7 -735.3,103.7 l -91.51,20.4 -90.79,26.1 -90.67,26.4 c -30.33,8.2 -60.36,18 -90.02,29.6 l -178.54,66 -174.41,80.1 c -228.96,112.5 -448.93,256.3 -636.28,439.9 -187.58,182.7 -341.73,399.7 -455.11,631.6 -114.03,232.1 -188.91,477.2 -236.86,722.5 -48.41,245.6 -67.55,492.3 -73.95,736.5 l -0.03,0.1 109.77,-171.5 c -343.87,174.1 -668.55,391 -957.86,649.5 -289.89,257.7 -541.94,558 -749.05,884.9 -207.49,326.9 -370.09,679.8 -491.48,1043.9 -60.62,182.2 -111.03,367.2 -152.9,553.7 -18.27,93.3 -40.95,187.7 -55.37,280.1 l -21.73,138.6 -10.84,69.3 -5.42,34.7 c -2.13,18 -3.86,38.5 -5.06,57.7 -6.81,109.8 76.66,204.3 186.45,211.2 103.25,6.4 192.97,-67.1 209.01,-167.1 l 4.18,-26.7 c 0.61,-3.8 0.34,-6.3 0.29,-11.3 l 5.27,-33.8 10.57,-67.5 21.1,-135.1 c 14.04,-90.1 34.98,-175.4 52.02,-263.3 39.07,-173.8 85.87,-345.5 141.85,-513.8 112.11,-336.3 261.16,-659.1 449.61,-956 188.23,-297 415.75,-568.1 678.08,-801.3 261.79,-233.8 556.34,-431 871.5,-590.5 65.87,-33.4 105.4,-98.2 109.55,-166.9 l 0.22,-4.6 v -0.2 c 27.59,-450.6 105.2,-897.8 301.61,-1276.4 97.58,-188.8 224,-358 376.76,-500.9 151.61,-144 331.49,-260.5 525.71,-352.8 191.72,-95.8 403.46,-156.8 617.53,-206.9 214.57,-50.6 437.86,-75.6 662.08,-90.6 l 168.8,-8.9 169.85,-1.4 c 56.52,-1.3 113.31,-0.1 170.19,2.2 l 170.51,5.2 c 227.66,13.7 455.81,30.9 683.42,63.3 455.57,58.8 908.47,154.1 1357.27,267.2 448.8,113.9 893.1,250.1 1330.7,406.2 876,310.2 1735.3,669.4 2574,1079.9 l 0.6,0.3 c 55.5,27.1 122.5,4.1 149.7,-51.4 24.3,-49.6 8.5,-108.6 -34.9,-139.9"
         style="fill:#481c1f;fill-opacity:1;fill-rule:nonzero;stroke:none"
         id="path98" /><path
         d="m 15627.8,6261.5 c 50,-227.3 109.7,-458.8 162.3,-691.1 54,-232.4 103.5,-466.8 147.3,-703 42.2,-236.5 81.9,-474.6 107.8,-715.5 27.1,-240.8 46.7,-484 47.4,-730.2 1.4,-245.8 -9.3,-495.1 -53.6,-746.1 -44.5,-249.9 -115.8,-506.2 -260.3,-744.5 -72.4,-118.3 -164.3,-230.5 -276.1,-324 -111.2,-94.2 -243.1,-165 -378.9,-211.4 -274.6,-92.9 -553.8,-87.1 -810.4,-49.7 -5.5,0.8 -11,1.9 -16.4,3.2 l -3.2,0.8 c -665,165.4 -1321.9,365.3 -1966,604.2 -643.2,240.8 -1272.6,523.7 -1877,857.8 -603.2,335 -1184.5,720.7 -1704.49,1186 -519.56,463 -985.14,1001.9 -1323.08,1621.7 -52.88,97 -17.11,218.5 79.89,271.4 95.07,51.8 213.69,18.5 268.16,-74.2 l 0.47,-0.8 c 329.07,-561.8 766.06,-1059.2 1263.96,-1488.4 499.32,-428.3 1051.79,-798.9 1634.19,-1118.3 582.4,-319.8 1193.8,-590.5 1819.2,-824.5 625,-235.9 1265.4,-434.2 1914.1,-600.1 l -19.6,4 c 211.1,-33.8 421.4,-35.2 600,23.9 179.4,56.5 322.9,176.8 428.2,345 105.7,167.8 170.6,376.4 211.1,592.6 39.8,217.2 58.5,444.2 62.2,673.5 7.7,459.1 -30.9,926.5 -82.9,1394 -25.5,234 -56.2,468.3 -85.6,703.9 -29.3,235.9 -61.5,471.1 -77.5,714.6 -3.5,52.7 36.3,98.1 88.9,101.6 47.8,3.2 89.6,-29.4 99.6,-74.7 l 0.3,-1.7"
         style="fill:#481c1f;fill-opacity:1;fill-rule:nonzero;stroke:none"
         id="path100" /><path
         d="m 28621.2,13152.9 c -165.8,3334.7 -2302.6,6058.9 -5028.5,6976.9 1,4.8 1.7,9.8 2.3,14.8 18.3,155.4 -6.3,309.1 -70.9,455.4 v 0 0 c 53,-13.3 105.9,-27.3 158.6,-42 v 0 c 2083.8,-650.8 3801.9,-2347.6 4622.8,-4388.7 v 0 c 152,-438.8 266.5,-896.6 341.8,-1366.6 34.7,-540 25.8,-1100.2 -26.1,-1649.8"
         style="fill:#ffffff;fill-opacity:1;fill-rule:nonzero;stroke:none"
         id="path102" /><path
         d="m 28551.7,11568.3 c 73.6,540.1 95.1,1069.3 69.5,1584.6 51.9,549.6 60.8,1109.8 26.1,1649.8 0,-0.1 0,-0.1 0,-0.2 167.1,-1042.9 141.5,-2145.7 -95.6,-3234.2"
         style="fill:#f4efef;fill-opacity:1;fill-rule:nonzero;stroke:none"
         id="path104" /><path
         d="m 16562,18189 c 701.4,868.6 1506.4,1536.3 2379.1,1986.9 v 0 c 536.4,250.6 1114.4,430.8 1725.3,534.2 391,66.2 782.6,98.8 1171.3,98.8 370.1,0 737.5,-29.6 1099,-87.8 v 0 c 13.7,-11.8 27.6,-24.5 41.5,-37.9 108,-104 218.4,-253.1 222.5,-430.3 v 0 c -1.1,-1.4 -2,-2.6 -3,-3.9 -453.6,121.2 -920.8,192.7 -1396.3,209.4 2,-6 3,-12.5 3.5,-18.5 19,-195.5 -340.5,-390 -803,-435 -64.9,-6.3 -128.5,-9.3 -189.7,-9.3 -375.6,-0.1 -666.5,113.6 -682.8,281.3 -0.5,4 -0.5,7.5 -0.5,11.5 C 18914.8,19996 17694.2,19323.3 16562,18189"
         style="fill:#e1b1ad;fill-opacity:1;fill-rule:nonzero;stroke:none"
         id="path106" /><path
         d="m 28540.3,11487.3 c 3.9,27.1 7.7,54 11.4,81 237.1,1088.5 262.7,2191.3 95.6,3234.2 0,0.1 0,0.1 0,0.2 -75.3,470 -189.8,927.8 -341.8,1366.6 121,-300.6 222.5,-608.8 302.8,-922.2 185.6,-724.6 258,-1477.1 196.3,-2229.8 -0.2,-1.9 -0.3,-3.7 -0.4,-5.6 -24.1,-445.8 -117.6,-970.8 -263.9,-1524.4 m -9599.2,8688.6 c 709.4,366.4 1463.7,589.4 2243.5,660.1 10.4,0.9 20.7,1.8 30.9,2.6 v 0 c 164.3,13.3 330.1,20 497.1,20 377.5,0 761.4,-34.1 1150.7,-102.7 v 0 c 1.4,-0.2 2.8,-0.5 4.2,-0.8 12.4,-2.2 24.7,-4.6 37.1,-6.9 10.5,-8.5 21.2,-17.5 32.1,-27.1 -361.5,58.2 -728.9,87.8 -1099,87.8 -388.7,0 -780.3,-32.6 -1171.3,-98.8 -610.9,-103.4 -1188.9,-283.6 -1725.3,-534.2 m 4741.6,382.1 c -52.7,14.7 -105.6,28.7 -158.6,42 v 0 c -1,2.1 -1.9,4.1 -2.8,6.2 v 0 0 c 54,-15.4 107.8,-31.4 161.4,-48.2"
         style="fill:#b6a0a1;fill-opacity:1;fill-rule:nonzero;stroke:none"
         id="path108" /><path
         d="M 13565.9,6906.5 C 13018.4,6090 12631,5159.2 12436.3,4184.8 c -13,-65.7 -76.9,-108.3 -142.5,-95.2 -63.5,12.6 -105.4,73.1 -96.3,136.4 148.4,1014.9 498.9,2004.6 1030.4,2894.3 l 0.1,0.2 c 56.7,94.9 179.5,125.8 274.4,69.2 94.8,-56.7 125.8,-179.5 69.1,-274.4 -1.7,-2.8 -3.8,-6.1 -5.6,-8.8"
         style="fill:#481c1f;fill-opacity:1;fill-rule:nonzero;stroke:none"
         id="path110" /><path
         d="m 8523.9,8205.9 c -237.5,-258 349.49,-546.5 537.5,-619 294,-99 461.99,453 544.5,660 -4.01,408 -872.5,148 -1082,-41"
         style="fill:#481c1f;fill-opacity:1;fill-rule:nonzero;stroke:none"
         id="path112" /><path
         d="m 24259.3,6076.2 c -8.5,0.4 -16.7,0.2 -25,-0.5 -71.8,-6.1 -144.1,-10.8 -216.9,-13.8 l -0.4,-0.1 c -11.4,-0.4 -22.8,-0.9 -34.2,-1.2 -93.5,-3.4 -187.6,-4.1 -282.3,-2.3 -47.9,0.8 -95.9,2.4 -144.1,4.6 -519.7,23.9 -1050.8,124 -1556.4,301.7 -1165.4,409.4 -2195.6,1230.6 -2641.9,2479.5 -6,17 -12,34.2 -17.9,51.4 -8.4,24.6 -21.5,47.3 -38.7,66.9 l -70.1,80.3 c -114.8,131.2 -230.6,263.8 -345.6,398.6 -36.7,43.1 -73.4,86.3 -109.8,129.9 -130.6,155.9 -259,314.9 -382.2,478.5 l -0.9,1.2 -0.1,0.1 c -95.2,126.5 -187.3,255.6 -274.7,388.1 -7.7,11.3 -15.3,22.5 -23,33.8 -55.1,81.4 -109.1,163.2 -162,245.4 -49,76.1 -97.1,152.5 -144.1,229.2 -42,68.4 -83.2,137 -123.7,205.9 -9.6,16.3 -19.1,32.6 -28.5,48.9 l -0.9,1.5 c -53,91.1 -104.6,182.6 -154.9,274.4 -386.3,705.7 -694.6,1433.4 -920.3,2165.7 -21.7,70.2 -42.6,140.5 -62.7,210.9 -15.7,55 -31,110 -45.8,165 l -0.1,0.1 c -30.1,112 -58.3,224.1 -84.5,336.2 -22.3,95 -43.2,190.1 -62.6,285.1 -10.4,50.7 -20.3,101.5 -29.9,152.3 -89,471.5 -142.7,941.2 -160,1404.4 -4.7,125.4 -6.7,250.4 -5.9,374.9 0.5,109 3.2,217.6 8,325.7 7,159.4 18.6,317.8 34.8,474.8 11.2,109.2 24.6,217.7 40.3,325.5 3.4,4.9 6.9,9.8 10.4,14.6 v 0.2 c 30.6,43.4 61.6,86.4 92.7,129 85.1,116.4 171.7,229.6 259.9,339.6 647.5,808 1375.8,1439.5 2165.2,1885.5 l 0.1,0.1 c 769.4,434.9 1596.8,693.7 2464,768.2 10.4,0.9 20.7,1.8 30.9,2.6 535.6,43.3 1086.3,16.3 1647.8,-82.7 1.4,-0.2 2.8,-0.5 4.2,-0.8 28.7,-5.1 57.5,-10.3 86.3,-15.8 13.8,-2.6 27.6,-5.2 41.3,-7.8 84,-16.3 167.6,-34.2 250.6,-53.8 22.4,-5.3 44.7,-10.7 67,-16.2 69.9,-17.3 139.4,-35.7 208.6,-55.3 54,-15.4 107.8,-31.4 161.4,-48.2 2083.8,-650.8 3801.9,-2347.6 4622.8,-4388.7 121,-300.6 222.5,-608.8 302.8,-922.2 185.6,-724.6 258,-1477.1 196.3,-2229.8 -0.2,-1.9 -0.3,-3.7 -0.4,-5.6 -24.1,-445.8 -117.6,-971 -264,-1524.6 -16.7,-63 -34,-126.4 -52,-190.1 -177.2,-626.4 -418.5,-1281.3 -700.9,-1893.4 l -0.9,-1.9 c -39.6,-85.8 -80,-170.8 -121.2,-254.8 -86.3,-176 -175.8,-347.4 -268.1,-512.5 -13.9,-24.9 -28.2,-50.3 -42.9,-76 -184,-322.3 -426.8,-704.9 -719.9,-1072.1 -60.5,-75.8 -123.2,-151 -187.9,-224.9 -132.7,-151.4 -274,-297.2 -423.4,-431.7 -485.8,-437.4 -1056.3,-755 -1688.7,-755 -2.9,0 -5.8,0 -8.8,0.1 -21.9,0 -44.1,0.5 -66.2,1.4 m 4382.1,10338.6 c -264.1,631.4 -615,1239.1 -1047.8,1806.6 -1005.4,1318.5 -2330.1,2263.7 -3789.5,2718.3 l -1.6,0.5 c -254.5,79.2 -513.1,143.5 -774.8,192.2 -27.2,5.2 -54.4,10.2 -81.5,15 -3.2,0.6 -6.5,1.2 -9.7,1.8 -727.7,128.9 -1438.9,144.4 -2128.3,47 -10.3,-1.4 -20.7,-2.9 -31,-4.5 -24.4,-3.6 -48.8,-7.4 -73.1,-11.4 -584.1,-92.4 -1152.3,-266.2 -1701.4,-521.3 -133.9,-62.2 -266.1,-128.9 -396.4,-200.1 -985.7,-538.7 -1866.3,-1333 -2624.6,-2367.9 -12.2,-16.6 -24.4,-33.3 -36.5,-50 -11.4,-15.7 -22.7,-31.4 -34,-47.2 -10.8,-14.9 -21.5,-30 -32.1,-45.1 -1.7,-2.4 -3.4,-4.8 -5,-7.2 -12.4,-17.3 -24.6,-34.8 -36.8,-52.3 -17.6,-25.1 -29,-54 -33.7,-84.3 -2.5,-16.8 -5,-33.6 -7.4,-50.4 -1.9,-12.9 -3.8,-25.8 -5.6,-38.7 -1.9,-13.7 -3.8,-27.5 -5.6,-41.4 -10.1,-73.7 -19,-147.7 -26.9,-222 -5,-45.3 -9.5,-90.6 -13.5,-136.1 -81.9,-900.1 -20.9,-1838 173.8,-2779.3 255.9,-1236.8 742.8,-2479.6 1440.2,-3651 28.6,-47.9 57.5,-95.8 86.8,-143.5 16.9,-27.6 34,-55.2 51.2,-82.8 19.4,-31.1 39,-62.2 58.7,-93.2 0.6,-1 1.3,-2 1.9,-3 52.3,-82.3 105.7,-164.2 160.2,-245.7 22.7,-33.9 45.6,-67.8 68.6,-101.6 8.4,-12.8 16.9,-25.5 25.5,-38.2 339,-506.5 735.2,-959.8 1118.7,-1398.5 l 30.8,-35.2 13.7,-15.7 c 14.5,-41.1 29.5,-81.9 45.2,-122.1 492.4,-1272.4 1539.8,-2125.5 2728.5,-2573.9 665.4,-250.9 1375,-375.1 2056.4,-375.1 129.6,0 258.5,4.5 385.6,13.5 22,1.6 43.9,3.3 65.7,5.1 80.7,-2.8 160.7,-1.3 240.1,4.2 93.3,6.6 185.6,18.7 276.9,36.2 114.4,21.9 227.2,52.1 338.3,90.2 184.3,63 364,147.3 538.8,250.3 182.7,107.5 360,235.3 531.5,380.4 52.3,44.1 104.1,89.9 155.2,137.3 106.2,98 210,202.5 311.3,312.8 608.8,662.2 1128.8,1529.7 1538.1,2431.7 298,656.8 537.3,1331.9 709.3,1959.4 176.3,643.1 282,1236.3 307.8,1708.7 94.4,1155.7 -101.9,2327.5 -562,3427.5 M 16275.3,14782.5 c 8.2,-42.7 16.6,-85.4 25.4,-128.2 1.4,-4.4 2.8,-8.7 4.3,-13.1 -10.4,50.7 -20.3,101.5 -29.9,152.3 0.1,-3.6 0.1,-7.3 0.2,-11 m 2117.6,-4731.6 -0.1,0.1 c -95.2,126.5 -187.3,255.6 -274.7,388.1 -7.7,11.3 -15.3,22.5 -23,33.8 -55.1,81.4 -109.1,163.2 -162,245.4 -49,76.1 -97.1,152.5 -144.1,229.2 -42,68.4 -83.2,137 -123.7,205.9 -9.6,16.3 -19.1,32.6 -28.5,48.9 l -0.9,1.5 c -13,-63.7 -27.5,-127.3 -43.4,-190.9 -6.1,-24.7 -12.5,-49.3 -19.1,-74 0.8,-1.5 1.7,-3 2.6,-4.5 -1,-4.2 -2.1,-8.4 -3.3,-12.7 83.3,-139.2 168.6,-276.3 255.9,-411 -14.8,-27.5 -29.9,-54.8 -45.5,-81.9 55.6,-33.9 111.1,-68 166.6,-102.2 l 0.3,-0.5 c 5.7,-3.5 11.5,-7 17.2,-10.5 l 0.3,-0.5 c 142.5,-87.9 284.6,-176.3 426.3,-265.4 l -0.9,1.2"
         style="fill:#481c1f;fill-opacity:1;fill-rule:nonzero;stroke:none"
         id="path114" /><path
         d="m 18989.7,8660.3 c -115.9,311.5 -136.3,656 -78.5,980.2 56.6,325.6 190.8,632.8 378.7,898.6 94.7,132.7 204,254.4 324.1,363.6 122,107.1 253.7,203.5 397.1,279 284.1,153.8 609.2,232.7 922.8,211.3 45.1,-3.1 79.2,-42.2 76.1,-87.3 -2.5,-37.6 -30,-67.5 -65.2,-74.7 l -0.9,-0.2 c -280.5,-57.5 -536.5,-172.2 -756.7,-332.8 -109.3,-81.3 -212,-170.6 -302.2,-271.6 -92.2,-98.9 -173.2,-207.7 -243.7,-322.2 -142.3,-228.3 -239.4,-482.5 -287.2,-742.5 -47,-260.7 -40.9,-526.7 18,-784.2 l 0.6,-2.6 c 24.7,-107.9 -42.7,-215.3 -150.5,-240 -99.2,-22.7 -198.1,32.5 -232.5,125.4"
         style="fill:#481c1f;fill-opacity:1;fill-rule:nonzero;stroke:none"
         id="path116" /><path
         d="m 22043.6,12715.5 c 94.6,-177.7 207.7,-332.2 344.4,-462.5 136,-130.5 292.8,-236.9 462.4,-316.7 169.9,-79.5 352.6,-131.7 540.7,-151.8 188.5,-21.3 380.9,-7.7 578.4,35.8 l 3.3,0.7 c 58.5,12.9 116.4,-24.1 129.2,-82.6 9.8,-44.5 -9.3,-88.6 -44.7,-112.9 -194.8,-133.1 -435.3,-201.8 -676.3,-211 -241.7,-8.6 -485.3,42.5 -705.5,143.3 -220.4,100.5 -418.5,251.9 -569.8,441.4 -150.9,189 -255.4,417.5 -280.5,653.1 -6.7,63.4 39.2,120.2 102.6,127 48.1,5.1 92.5,-20.2 114,-60.4 l 1.8,-3.4"
         style="fill:#481c1f;fill-opacity:1;fill-rule:nonzero;stroke:none"
         id="path118" /><path
         d="m 23199.4,20207.9 c -107.1,-336.3 -317.5,-506 -606.7,-739.2 -474,-382.4 -1064,-858.3 -1469.2,-2280.5 l -35.3,-124.2 c -207.4,-729.4 -421.9,-1483.7 -682.9,-2206.1 -483.9,-1338.2 -1460.7,-1518.3 -2000.5,-1505.5 -270.6,6 -544.4,61.5 -801.8,154.2 -100.4,36 -198.3,77.8 -292.5,124.5 h -0.1 c -156,77.4 -301.9,168.1 -432.6,269.2 -130.3,100.7 -245.5,211.6 -340.2,329.4 -46.3,57.5 -87.8,116.6 -123.7,177.1 -45.4,76.3 -82.1,154.8 -108.9,234.4 -1.5,4.4 -2.9,8.7 -4.3,13.1 -8.8,42.8 -17.2,85.5 -25.4,128.2 -93.2,486.9 -148.1,966.2 -164.6,1435.1 -4.4,123.2 -6.1,245.6 -5.1,367.3 0.8,107.9 3.7,215.2 8.8,321.9 7.4,158.1 19.4,314.9 36,470.1 11.5,107.8 25.2,214.8 41.1,321 3.7,5.3 7.4,10.5 11.2,15.7 30.6,43.4 61.6,86.4 92.7,129 86.9,118.6 175.6,233.8 266.1,345.8 701.6,868.9 1506.7,1536.8 2379.6,1987.5 709.4,366.4 1463.7,589.4 2243.5,660.1 10.4,0.9 20.7,1.8 30.9,2.6 539.3,46.1 1090.7,19.5 1647.8,-82.7 1.4,-0.2 2.8,-0.5 4.2,-0.8 12.4,-2.2 24.7,-4.6 37.1,-6.9 10.5,-8.5 21.2,-17.5 32.1,-27.1 13.7,-11.8 27.6,-24.5 41.5,-37.9 108,-104 218.4,-253.1 222.5,-430.3 v -4.8 c 0.2,-13.3 -0.2,-26.7 -1.3,-40.2 m 324.7,392.1 c -1,2.1 -1.9,4.1 -2.8,6.2 -35.2,78.3 -81.9,154.4 -139.7,227.5 -10.5,13.3 -21.4,26.6 -32.7,39.7 l -0.3,0.4 c -66.8,77.8 -146.4,151.9 -238.2,221.2 -1.6,1.2 -3.2,2.3 -4.8,3.5 -23,16.3 -49.2,27.6 -76.9,33.1 -27.5,5.4 -55,10.7 -82.5,15.8 -3.2,0.6 -6.5,1.2 -9.7,1.8 -723.3,132.9 -1436.8,146.8 -2128.3,47 -10.3,-1.4 -20.7,-2.9 -31,-4.5 -716.9,-107 -1410.1,-336.1 -2065.8,-681.3 -1016.8,-535.3 -1943.6,-1349.4 -2729.7,-2419.4 -12.2,-16.6 -24.4,-33.3 -36.5,-50 -11.4,-15.7 -22.7,-31.4 -34,-47.2 -10.8,-14.9 -21.5,-30 -32.1,-45.1 -1.7,-2.3 -3.4,-4.7 -5.1,-7.1 -12.4,-17.5 -24.8,-35.1 -37.1,-52.8 -17.4,-24.9 -28.9,-53.5 -33.6,-83.5 -2.6,-16.6 -5.1,-33.3 -7.6,-50 -1.9,-12.7 -3.8,-25.6 -5.7,-38.4 -2,-13.6 -3.9,-27.3 -5.8,-41 -10.3,-73.6 -19.5,-147.6 -27.7,-222 -5,-44.3 -9.6,-88.8 -13.8,-133.4 -83.4,-881.8 -27.1,-1806.8 168.3,-2756.9 1.3,-6.5 3,-12.9 5,-19.2 0.8,-2.5 1.5,-4.9 2.4,-7.4 63,-198.6 171.9,-389.5 315.9,-565.9 6.3,-7.8 12.7,-15.5 19.2,-23.2 27.8,-33.2 57,-65.9 87.3,-98 59,-62.6 122.4,-122.9 189.8,-180.6 9.9,-8.6 20,-17 30.1,-25.4 215.7,-179.5 469.1,-333 743.1,-449.4 80.2,-34.2 162.2,-65.1 245.6,-92.6 l 2.4,-0.8 c 75.9,-24.9 152.9,-47 230.7,-66 25.5,-6.3 51.1,-12.2 76.8,-17.8 175.5,-38.1 354.4,-60.5 533,-64.7 1.2,0 2.3,-0.1 3.5,-0.1 20.4,-0.5 40.6,-0.7 60.8,-0.7 1071.7,0 1917,642.2 2324.9,1770.1 265.8,735.6 482.2,1496.7 691.5,2232.8 l 35.2,123.9 c 370.4,1300.1 883.2,1713.8 1335.7,2078.7 227.4,183.5 445.6,359.5 601.3,624.4 56.7,96.2 105.1,204.1 142.7,328.3 2,6.5 3.6,13.1 4.8,19.7 1,4.9 1.7,9.9 2.3,14.9 18.3,155.4 -6.3,309.1 -70.9,455.4 m -7110.2,-6193.2 c -45.4,76.3 -82.1,154.8 -108.9,234.4 19.4,-95 40.3,-190.1 62.6,-285.1 20,-13.6 39.6,-27.5 59,-41.6 38.1,-27.6 75.1,-55.8 111,-84.8 -46.3,57.5 -87.8,116.6 -123.7,177.1"
         style="fill:#481c1f;fill-opacity:1;fill-rule:nonzero;stroke:none"
         id="path120" /><path
         d="m 27339.7,8558.2 c -115.9,0 -209.5,36 -273.8,71.6 -376.9,208.8 -529.6,825.2 -435.7,1269.9 22.8,108.1 128.8,177.1 237,154.4 108.1,-22.8 177.2,-128.9 154.4,-237 -67.3,-318.7 50.7,-733.5 238.2,-837.4 91.3,-50.7 209.8,-6.9 351.8,130.2 79.5,76.6 206.1,74.4 282.8,-5.2 76.7,-79.5 74.3,-206.1 -5.2,-282.8 -210.1,-202.6 -398.7,-263.7 -549.5,-263.7"
         style="fill:#481c1f;fill-opacity:1;fill-rule:nonzero;stroke:none"
         id="path122" /><path
         d="m 26137.2,6432.3 c -36.5,0 -73.5,10.1 -106.7,31 -93.3,59.1 -121.2,182.6 -62.1,276 296.4,468.8 280.1,745.2 257.4,1127.7 -27,456.8 -60.6,1025.5 393.7,2071.1 44,101.3 161.9,147.8 263.1,103.8 101.3,-44.1 147.7,-161.9 103.7,-263.2 -416.2,-958 -387,-1452.2 -361.2,-1888.2 24,-404.8 46.6,-787.3 -318.6,-1365 -38.1,-60.2 -103,-93.2 -169.3,-93.2"
         style="fill:#481c1f;fill-opacity:1;fill-rule:nonzero;stroke:none"
         id="path124" /><path
         d="m 23808.9,8878.4 c 418,-297 634.5,-550 1779.5,-1020.5 1003,-412 -853,-2177 -2109,-1571.5 -1207,564 -796,3278.5 329.5,2592"
         style="fill:#481c1f;fill-opacity:1;fill-rule:nonzero;stroke:none"
         id="path126" /><path
         d="m 20336.4,9411.9 c -5,344.5 536,344.5 531,0 5,-344 -536,-344 -531,0"
         style="fill:#481c1f;fill-opacity:1;fill-rule:nonzero;stroke:none"
         id="path128" /><path
         d="m 21150.9,8800.4 c -5,344.5 536,344.5 531,0 5,-344.5 -536,-344.5 -531,0"
         style="fill:#481c1f;fill-opacity:1;fill-rule:nonzero;stroke:none"
         id="path130" /><path
         d="m 20407.9,8340.9 c -3.5,251.5 391.5,251.5 388,0 3.5,-251.5 -391.5,-251.5 -388,0"
         style="fill:#481c1f;fill-opacity:1;fill-rule:nonzero;stroke:none"
         id="path132" /><path
         d="m 11005.8,16459 c -116.2,0 -228.8,17.1 -336.2,51.9 0,0 0,0 -0.1,0 -189,373.9 -257.5,801.2 -243.3,1222.4 0,-0.1 0.1,-0.1 0.1,-0.1 449.8,-243.9 891.7,-506.5 1321.4,-784.9 72.9,-47.2 145.4,-94.9 217.5,-143 -324.6,-228.2 -654.4,-346.3 -959.4,-346.3"
         style="fill:#d05969;fill-opacity:1;fill-rule:nonzero;stroke:none"
         id="path134" /><path
         d="m 10962.3,16249.3 c -45.2,0 -91.1,2 -137.9,6.1 -58.7,81.7 -110.1,167.1 -154.9,255.5 0.1,0 0.1,0 0.1,0 107.4,-34.8 220,-51.9 336.2,-51.9 305,0 634.8,118.1 959.4,346.3 -72.1,48.1 -144.6,95.8 -217.5,143 -429.7,278.4 -871.6,541 -1321.4,784.9 0,0 -0.1,0 -0.1,0.1 2.5,73.1 7.4,146.1 14.7,218.6 641.5,-343.5 1264,-723 1864,-1135.5 -430.3,-322 -840,-567.1 -1342.6,-567.1"
         style="fill:#481c1f;fill-opacity:1;fill-rule:nonzero;stroke:none"
         id="path136" /><path
         d="m 18455.9,13351.8 c -17.5,0 -34.5,0.2 -51.1,0.6 -270.6,6 -544.4,61.5 -801.8,154.2 -100.4,36 -198.3,77.8 -292.5,124.5 h -0.1 c -156,77.4 -301.9,168.1 -432.6,269.2 -130.3,100.7 -245.5,211.6 -340.2,329.4 -46.3,57.5 -87.8,116.6 -123.7,177.1 -45.4,76.3 -82.1,154.8 -108.9,234.4 v 0 c -10.4,50.7 -20.3,101.5 -29.9,152.3 -89,471.5 -142.7,941.2 -160,1404.4 -4.7,125.4 -6.7,250.4 -5.9,374.9 312.2,-1033 1085.2,-1601.6 1890.5,-1601.6 825.8,0 1685.7,597.3 2118.7,1904.2 1092.4,3178.6 2050.4,2027.1 3079.3,3373.6 0.8,-0.3 2.2,-0.6 3,-0.9 v 0 c 0.2,-13.3 -0.2,-26.7 -1.3,-40.2 -107.1,-336.3 -317.5,-506 -606.7,-739.2 -474,-382.4 -1064,-858.3 -1469.2,-2280.5 l -35.3,-124.2 c -207.4,-729.4 -421.9,-1483.7 -682.9,-2206.1 -469,-1297 -1401,-1506.1 -1949.4,-1506.1"
         style="fill:#9f3735;fill-opacity:1;fill-rule:nonzero;stroke:none"
         id="path138" /><path
         d="m 23200.7,20248.1 c -0.8,0.3 -2.2,0.6 -3,0.9 1,1.3 1.9,2.5 3,3.9 v -4.8"
         style="fill:#c18f8f;fill-opacity:1;fill-rule:nonzero;stroke:none"
         id="path140" /><path
         d="m 16305,14641.2 v 0 c -1.5,4.4 -2.9,8.7 -4.3,13.1 -8.8,42.8 -17.2,85.5 -25.4,128.2 -93.2,486.9 -148.1,966.2 -164.6,1435.1 -4.4,123.2 -6.1,245.5 -5.1,367.2 1.2,-4.1 2.4,-8 3.6,-12 -0.8,-124.5 1.2,-249.5 5.9,-374.9 17.3,-463.2 71,-932.9 160,-1404.4 9.6,-50.8 19.5,-101.6 29.9,-152.3 v 0"
         style="fill:#481c1f;fill-opacity:1;fill-rule:nonzero;stroke:none"
         id="path142" /><path
         d="m 18453.2,13152 c -1056.3,0 -2109,681.1 -2349.3,1451.9 -201,978 -259,1970 -139,2929.5 6.8,-349.2 56.6,-666.2 140.7,-948.6 -1,-121.7 0.7,-244 5.1,-367.2 16.5,-468.9 71.4,-948.2 164.6,-1435.1 8.2,-42.7 16.6,-85.4 25.4,-128.2 1.4,-4.4 2.8,-8.7 4.3,-13.1 v 0 c 26.8,-79.6 63.5,-158.1 108.9,-234.4 35.9,-60.5 77.4,-119.6 123.7,-177.1 94.7,-117.8 209.9,-228.7 340.2,-329.4 130.7,-101.1 276.6,-191.8 432.6,-269.2 h 0.1 c 94.2,-46.7 192.1,-88.5 292.5,-124.5 257.4,-92.7 531.2,-148.2 801.8,-154.2 16.6,-0.4 33.6,-0.6 51.1,-0.6 548.4,0 1480.4,209.1 1949.4,1506.1 261,722.4 475.5,1476.7 682.9,2206.1 l 35.3,124.2 c 405.2,1422.2 995.2,1898.1 1469.2,2280.5 289.2,233.2 499.6,402.9 606.7,739.2 1.1,13.5 1.5,26.9 1.3,40.2 v 0 4.8 c 51.3,67.4 103,141.2 154.7,222 35.5,-96.5 50.5,-199.5 38,-307 -309,-1019.5 -1435,-768 -2080.5,-3034.5 -224,-787 -444.5,-1573.5 -722.5,-2343.5 -432,-1195.2 -1285.8,-1637.9 -2137.2,-1637.9"
         style="fill:#481c1f;fill-opacity:1;fill-rule:nonzero;stroke:none"
         id="path144" /><path
         d="m 12229.3,11701.5 c 25.8,-271.7 -38.9,-554 -166,-802 -127.1,-248.9 -315.8,-465.5 -541.4,-629.8 -225.4,-164.6 -488.6,-278.5 -763.5,-324.6 -274.2,-45.2 -561.5,-23.1 -812.15,82.2 -63.62,26.8 -93.53,100 -66.79,163.7 20.33,48.4 67.58,77.3 117.01,76.6 l 3.93,-0.1 c 233.1,-3.5 453.4,25.4 661.3,93 207.7,66.2 401.9,167.2 575.4,296.1 173.1,129.3 325.5,285.6 448.9,464.2 124,178.9 216.6,379.2 282.2,601.6 l 1.2,4.1 c 20.8,70.5 94.7,110.7 165.1,90 53.6,-15.8 89.7,-62.7 94.8,-115"
         style="fill:#481c1f;fill-opacity:1;fill-rule:nonzero;stroke:none"
         id="path146" /><path
         d="m 7107.46,9057.8 c -49.32,-198.2 -168.29,-380.4 -322.44,-521 -154.54,-141.3 -344.58,-242.9 -546.53,-296.9 -201.83,-54.4 -416.7,-62.2 -620.87,-18.5 -203.45,43.8 -397.2,140.2 -539.82,284.9 -42.29,42.8 -41.8,111.9 1.07,154.1 30.79,30.4 75.05,38.7 113.21,25.1 l 4.37,-1.6 c 160.01,-57.3 315.75,-89.9 472.22,-95.8 155.95,-6.6 311.01,12.3 459.64,53.9 148.51,42.1 290.38,106 420.02,191.6 130.15,85.6 246.09,192.6 354.17,322.4 l 3.3,4 c 40.99,49.2 114.11,55.9 163.33,14.9 35.28,-29.4 48.66,-75.4 38.33,-117.1"
         style="fill:#481c1f;fill-opacity:1;fill-rule:nonzero;stroke:none"
         id="path148" /></g></g></svg>
